<?xml version="1.0" encoding="UTF-8"?>
<svg height="128px" viewBox="0 0 128 128" width="128px" xmlns="http://www.w3.org/2000/svg" xmlns:xlink="http://www.w3.org/1999/xlink">
    <clipPath id="a">
        <path d="m 7 4 h 115 v 118 h -115 z m 0 0"/>
    </clipPath>
    <clipPath id="b">
        <path d="m 121.96875 62.859375 c 0 32.117187 -25.734375 58.15625 -57.480469 58.15625 c -31.742187 0 -57.476562 -26.039063 -57.476562 -58.15625 c 0 -32.121094 25.734375 -58.15625 57.476562 -58.15625 c 31.746094 0 57.480469 26.035156 57.480469 58.15625 z m 0 0"/>
    </clipPath>
    <clipPath id="c">
        <path d="m 7 4 h 115 v 113 h -115 z m 0 0"/>
    </clipPath>
    <clipPath id="d">
        <path d="m 121.96875 62.859375 c 0 32.117187 -25.734375 58.15625 -57.480469 58.15625 c -31.742187 0 -57.476562 -26.039063 -57.476562 -58.15625 c 0 -32.121094 25.734375 -58.15625 57.476562 -58.15625 c 31.746094 0 57.480469 26.035156 57.480469 58.15625 z m 0 0"/>
    </clipPath>
    <clipPath id="e">
        <path d="m 68 27 h 54 v 70 h -54 z m 0 0"/>
    </clipPath>
    <clipPath id="f">
        <path d="m 121.96875 62.859375 c 0 32.117187 -25.734375 58.15625 -57.480469 58.15625 c -31.742187 0 -57.476562 -26.039063 -57.476562 -58.15625 c 0 -32.121094 25.734375 -58.15625 57.476562 -58.15625 c 31.746094 0 57.480469 26.035156 57.480469 58.15625 z m 0 0"/>
    </clipPath>
    <clipPath id="g">
        <path d="m 62 21 h 12 v 18 h -12 z m 0 0"/>
    </clipPath>
    <clipPath id="h">
        <path d="m 121.96875 62.859375 c 0 32.117187 -25.734375 58.15625 -57.480469 58.15625 c -31.742187 0 -57.476562 -26.039063 -57.476562 -58.15625 c 0 -32.121094 25.734375 -58.15625 57.476562 -58.15625 c 31.746094 0 57.480469 26.035156 57.480469 58.15625 z m 0 0"/>
    </clipPath>
    <clipPath id="i">
        <path d="m 82 12 h 29 v 11 h -29 z m 0 0"/>
    </clipPath>
    <clipPath id="j">
        <path d="m 121.96875 62.859375 c 0 32.117187 -25.734375 58.15625 -57.480469 58.15625 c -31.742187 0 -57.476562 -26.039063 -57.476562 -58.15625 c 0 -32.121094 25.734375 -58.15625 57.476562 -58.15625 c 31.746094 0 57.480469 26.035156 57.480469 58.15625 z m 0 0"/>
    </clipPath>
    <clipPath id="k">
        <path d="m 7 8 h 43 v 108 h -43 z m 0 0"/>
    </clipPath>
    <clipPath id="l">
        <path d="m 121.96875 62.859375 c 0 32.117187 -25.734375 58.15625 -57.480469 58.15625 c -31.742187 0 -57.476562 -26.039063 -57.476562 -58.15625 c 0 -32.121094 25.734375 -58.15625 57.476562 -58.15625 c 31.746094 0 57.480469 26.035156 57.480469 58.15625 z m 0 0"/>
    </clipPath>
    <clipPath id="m">
        <path d="m 7 4 h 115 v 118 h -115 z m 0 0"/>
    </clipPath>
    <clipPath id="n">
        <path d="m 121.96875 62.859375 c 0 32.117187 -25.734375 58.15625 -57.480469 58.15625 c -31.742187 0 -57.476562 -26.039063 -57.476562 -58.15625 c 0 -32.121094 25.734375 -58.15625 57.476562 -58.15625 c 31.746094 0 57.480469 26.035156 57.480469 58.15625 z m 0 0"/>
    </clipPath>
    <clipPath id="o">
        <path d="m 7 4 h 115 v 113 h -115 z m 0 0"/>
    </clipPath>
    <clipPath id="p">
        <path d="m 121.96875 62.859375 c 0 32.117187 -25.734375 58.15625 -57.480469 58.15625 c -31.742187 0 -57.476562 -26.039063 -57.476562 -58.15625 c 0 -32.121094 25.734375 -58.15625 57.476562 -58.15625 c 31.746094 0 57.480469 26.035156 57.480469 58.15625 z m 0 0"/>
    </clipPath>
    <clipPath id="q">
        <path d="m 68 27 h 54 v 70 h -54 z m 0 0"/>
    </clipPath>
    <clipPath id="r">
        <path d="m 121.96875 62.859375 c 0 32.117187 -25.734375 58.15625 -57.480469 58.15625 c -31.742187 0 -57.476562 -26.039063 -57.476562 -58.15625 c 0 -32.121094 25.734375 -58.15625 57.476562 -58.15625 c 31.746094 0 57.480469 26.035156 57.480469 58.15625 z m 0 0"/>
    </clipPath>
    <clipPath id="s">
        <path d="m 62 21 h 12 v 18 h -12 z m 0 0"/>
    </clipPath>
    <clipPath id="t">
        <path d="m 121.96875 62.859375 c 0 32.117187 -25.734375 58.15625 -57.480469 58.15625 c -31.742187 0 -57.476562 -26.039063 -57.476562 -58.15625 c 0 -32.121094 25.734375 -58.15625 57.476562 -58.15625 c 31.746094 0 57.480469 26.035156 57.480469 58.15625 z m 0 0"/>
    </clipPath>
    <clipPath id="u">
        <path d="m 82 12 h 29 v 11 h -29 z m 0 0"/>
    </clipPath>
    <clipPath id="v">
        <path d="m 121.96875 62.859375 c 0 32.117187 -25.734375 58.15625 -57.480469 58.15625 c -31.742187 0 -57.476562 -26.039063 -57.476562 -58.15625 c 0 -32.121094 25.734375 -58.15625 57.476562 -58.15625 c 31.746094 0 57.480469 26.035156 57.480469 58.15625 z m 0 0"/>
    </clipPath>
    <clipPath id="w">
        <path d="m 7 8 h 43 v 108 h -43 z m 0 0"/>
    </clipPath>
    <clipPath id="x">
        <path d="m 121.96875 62.859375 c 0 32.117187 -25.734375 58.15625 -57.480469 58.15625 c -31.742187 0 -57.476562 -26.039063 -57.476562 -58.15625 c 0 -32.121094 25.734375 -58.15625 57.476562 -58.15625 c 31.746094 0 57.480469 26.035156 57.480469 58.15625 z m 0 0"/>
    </clipPath>
    <clipPath id="y">
        <rect height="128" width="128"/>
    </clipPath>
    <clipPath id="z">
        <rect height="128" width="128"/>
    </clipPath>
    <filter id="A" height="100%" width="100%" x="0%" y="0%">
        <feColorMatrix in="SourceGraphic" type="matrix" values="0 0 0 0 1 0 0 0 0 1 0 0 0 0 1 0 0 0 1 0"/>
    </filter>
    <mask id="B">
        <g clip-path="url(#z)" filter="url(#A)">
            <g clip-path="url(#y)">
                <g clip-path="url(#m)">
                    <g clip-path="url(#n)">
                        <path d="m 121.96875 62.859375 c 0 32.117187 -25.734375 58.15625 -57.480469 58.15625 c -31.742187 0 -57.476562 -26.039063 -57.476562 -58.15625 c 0 -32.121094 25.734375 -58.15625 57.476562 -58.15625 c 31.746094 0 57.480469 26.035156 57.480469 58.15625 z m 0 0" fill="#1a5fb4"/>
                    </g>
                </g>
                <g clip-path="url(#o)">
                    <g clip-path="url(#p)">
                        <path d="m 121.96875 58.507812 c 0 32.117188 -25.734375 58.15625 -57.480469 58.15625 c -31.742187 0 -57.476562 -26.039062 -57.476562 -58.15625 c 0 -32.121093 25.734375 -58.15625 57.476562 -58.15625 c 31.746094 0 57.480469 26.035157 57.480469 58.15625 z m 0 0" fill="#1c71d8"/>
                    </g>
                </g>
                <g clip-path="url(#q)">
                    <g clip-path="url(#r)">
                        <path d="m 83.394531 34.625 v 2.941406 c 0 3.8125 -3.054687 6.902344 -6.820312 6.902344 c -4.527344 0.339844 -7.925781 4.332031 -7.589844 8.914062 v 0.496094 c 0 5.140625 4.117187 9.304688 9.199219 9.304688 h 10.375 c 3.765625 0 6.816406 3.089844 6.816406 6.902344 v 17.65625 c 0 4.851562 3.886719 8.78125 8.683594 8.78125 c 4.34375 -0.453126 7.503906 -4.382813 7.058594 -8.78125 v -12.78125 c 0 -3.140626 1.234374 -6.148438 3.433593 -8.363282 c 2.203125 -2.214844 5.183594 -3.453125 8.285157 -3.4375 c 1.132812 -0.683594 1.945312 -1.796875 2.261718 -3.089844 c 0.316406 -1.292968 0.113282 -2.660156 -0.570312 -3.800781 v -21.644531 c 0 -3.808594 -3.050782 -6.898438 -6.816406 -6.898438 h -27.496094 c -3.769532 0 -6.820313 3.089844 -6.820313 6.898438 z m 0 0" fill="#26a269"/>
                    </g>
                </g>
                <g clip-path="url(#s)">
                    <g clip-path="url(#t)">
                        <path d="m 68.214844 21.222656 c 3.074218 0 5.566406 2.519532 5.566406 5.628906 v 6.183594 c 0 3.109375 -2.492188 5.628906 -5.566406 5.628906 c -3.074219 0 -5.566406 -2.519531 -5.566406 -5.628906 v -6.183594 c 0 -3.109374 2.492187 -5.628906 5.566406 -5.628906 z m 0 0" fill="#26a269"/>
                    </g>
                </g>
                <g clip-path="url(#u)">
                    <g clip-path="url(#v)">
                        <path d="m 87.949219 12.730469 h 17.175781 c 2.78125 0 5.035156 2.277343 5.035156 5.089843 s -2.253906 5.09375 -5.035156 5.09375 h -17.175781 c -2.78125 0 -5.035157 -2.28125 -5.035157 -5.09375 s 2.253907 -5.089843 5.035157 -5.089843 z m 0 0" fill="#26a269"/>
                    </g>
                </g>
                <g clip-path="url(#w)">
                    <g clip-path="url(#x)">
                        <path d="m 30.25 16.574219 h -7.664062 v 7.753906 c -2.117188 -4.28125 -7.265626 -6.019531 -11.496094 -3.878906 c -4.234375 2.144531 -5.949219 7.351562 -3.832032 11.632812 v 13.570313 c 0 4.285156 -3.433593 7.757812 -7.667968 7.757812 c -4.230469 0 -7.664063 3.472656 -7.664063 7.753906 v 15.507813 c 0 4.285156 3.433594 7.757813 7.664063 7.757813 c 4.234375 0 7.667968 3.46875 7.667968 7.753906 v 15.507812 c 0 4.285156 3.429688 7.757813 7.664063 7.757813 h 3.832031 c 4.230469 0 7.664063 -3.472657 7.664063 -7.757813 v -29.078125 c 0 -4.285156 -3.433594 -7.753906 -7.664063 -7.753906 c -4.234375 0 -7.664062 -3.472656 -7.664062 -7.757813 c 0 -4.28125 3.429687 -7.753906 7.664062 -7.753906 c 4.230469 0 7.664063 -3.472656 7.664063 -7.753906 c 0 -4.285156 3.429687 -7.753906 7.664062 -7.753906 s 7.664063 -3.472656 7.664063 -7.757813 v -11.519531 c 0 -2.203125 1.765625 -3.988281 3.945312 -3.988281 c 2.1875 -0.132813 3.851563 -2.035157 3.71875 -4.25 c -1.15625 -3.109375 -4.589844 -4.679688 -7.664062 -3.503907 h -3.832032 c -4.230468 0 -7.664062 3.46875 -7.664062 7.753907 z m 0 0" fill="#26a269"/>
                    </g>
                </g>
                <path d="m 41.082031 15.878906 c -5.796875 0.003906 -11.640625 2.652344 -14.214843 7.84375 c -7.847657 0 -13.523438 6.867188 -13.730469 15.691406 h 52.957031 c -0.226562 -5.125 -4.695312 -9.292968 -9.804688 -9.75 c -0.761718 -7.820312 -7.335937 -13.785156 -15.195312 -13.785156 z m 0 0" fill="#ffffff"/>
                <path d="m 107.671875 11.882812 c -3.734375 0 -7.050781 2.386719 -8.238281 5.925782 c -0.878906 -0.355469 -1.816406 -0.542969 -2.761719 -0.542969 c -4.035156 0 -7.304687 3.269531 -7.304687 7.304687 c 0 1.246094 0.320312 2.472657 0.929687 3.5625 h 12.746094 c 0.027343 -0.050781 0.058593 -0.101562 0.085937 -0.15625 c 0.085938 0.054688 0.175782 0.105469 0.261719 0.15625 h 8.554687 c 2.726563 -1.539062 4.414063 -4.429687 4.414063 -7.5625 c 0 -4.796874 -3.890625 -8.6875 -8.6875 -8.6875 z m 0 0" fill="#ffffff"/>
                <path d="m 13.136719 39.414062 h 52.957031 v 3.925782 h -52.957031 z m 0 0" fill="#deddda"/>
                <path d="m 89.214844 35.257812 c -3.921875 0.003907 -7.882813 1.683594 -9.625 4.980469 c -5.3125 0 -9.15625 4.359375 -9.296875 9.960938 h 35.863281 c -0.15625 -3.253907 -3.179688 -5.898438 -6.640625 -6.1875 c -0.515625 -4.96875 -4.96875 -8.753907 -10.289063 -8.753907 z m 0 0" fill="#ffffff"/>
                <path d="m 70.292969 50.199219 h 35.863281 v 2.492187 h -35.863281 z m 0 0" fill="#deddda"/>
                <path d="m 74.105469 0.890625 c 3.734375 0 7.050781 2.386719 8.238281 5.925781 c 0.878906 -0.359375 1.816406 -0.542968 2.761719 -0.542968 c 4.035156 0 7.304687 3.269531 7.304687 7.300781 c 0 1.25 -0.320312 2.476562 -0.929687 3.566406 h -12.746094 c -0.027344 -0.050781 -0.058594 -0.105469 -0.085937 -0.15625 c -0.085938 0.054687 -0.175782 0.105469 -0.261719 0.15625 h -8.554688 c -2.726562 -1.542969 -4.414062 -4.429687 -4.414062 -7.5625 c 0 -4.800781 3.890625 -8.6875 8.6875 -8.6875 z m 0 0" fill="#ffffff"/>
                <path d="m 102.6875 104.097656 l 0.636719 -5.152344 c 0.003906 0.339844 0.378906 0.421876 1.0625 0.421876 c 0 0 9.6875 -0.015626 10.707031 -0.015626 c 1.949219 0 3.957031 1.636719 3.957031 4.023438 c 0 1.070312 -0.378906 2.003906 -1.148437 2.78125 l -15.746094 16.019531 c -0.648438 0.660157 -1.453125 1.332031 -2.894531 1.332031 c -1.441407 0 -2.136719 -0.5625 -2.863281 -1.300781 l -15.777344 -16.050781 c -0.769532 -0.777344 -1.105469 -2.097656 -1.105469 -3.167969 c 0 -2.390625 1.964844 -3.636719 3.914063 -3.636719 c 1.019531 0 1.953124 0.375 2.730468 1.167969 l 9.144532 9.296875 l 0.289062 -7.71875 c 0.082031 -2.222656 2.082031 3.339844 4.269531 3.339844 c 2.183594 0 2.550781 0.867188 2.824219 -1.339844 z m 0 0" fill="#deddda"/>
                <path d="m 94.691406 101.796875 l -0.164062 1.152344 c -0.003906 0.339843 -1.011719 -3.578125 -1.695313 -3.574219 c 0 0 -10.738281 0.015625 -11.757812 0.015625 c -1.949219 0 -0.785157 -0.773437 -1.515625 1.984375 c -0.234375 0.875 0.425781 3.921875 1.0625 4.78125 l 15.746094 16.019531 c 0.648437 0.660157 1.453124 1.332031 2.894531 1.332031 c 1.441406 0 2.136719 -0.5625 2.863281 -1.300781 l 15.777344 -16.050781 c 0.769531 -0.777344 1.148437 -1.710938 1.148437 -2.78125 c 0 -2.390625 0.394531 -3.910156 -1.550781 -3.910156 c -1.023438 0 -4.359375 0.261718 -5.136719 1.054687 c 0 0 -8.101562 -0.816406 -8.464843 -1.285156 l -1.664063 6.703125 c -0.707031 2.847656 -2.542969 1.210938 -4.9375 1.214844 c -3.101563 0.003906 -2.921875 -4.289063 -3.023437 -3.941406 z m 0 0" fill="#deddda"/>
                <path d="m 103.234375 69.457031 l 0.105469 27.308594 c 0.003906 0.332031 0.378906 0.410156 1.0625 0.414063 c 0 0 9.6875 -0.015626 10.707031 -0.015626 c 1.949219 0 3.957031 1.605469 3.957031 3.957032 c 0 1.050781 -0.378906 1.964844 -1.144531 2.730468 l -15.75 15.75 c -0.648437 0.648438 -1.453125 1.308594 -2.894531 1.308594 s -2.136719 -0.550781 -2.863282 -1.277344 l -15.777343 -15.78125 c -0.765625 -0.765624 -1.148438 -1.679687 -1.148438 -2.730468 c 0 -2.351563 2.011719 -3.957032 3.957031 -3.957032 c 1.023438 0 1.953126 0.367188 2.730469 1.144532 l 9.144531 9.144531 v -37.996094 c 0 -2.1875 1.773438 -3.960937 3.957032 -3.960937 s 3.957031 1.773437 3.957031 3.960937 z m 0 0" fill="#ffffff"/>
                <path d="m 94.015625 69.460938 l -0.105469 27.308593 c -0.003906 0.335938 -0.378906 0.414063 -1.0625 0.414063 c 0 0 -8.378906 -0.019532 -9.402344 -0.019532 c -1.945312 0 -3.957031 1.605469 -3.957031 3.957032 c 0 1.050781 0.382813 1.964844 1.148438 2.730468 l 15.746093 15.75 c 0.652344 0.648438 1.453126 1.308594 2.894532 1.308594 s 2.136718 -0.550781 2.863281 -1.277344 l 15.78125 -15.78125 c 0.765625 -0.765624 1.144531 -1.679687 1.144531 -2.730468 c 0 -2.351563 -2.007812 -3.957032 -3.957031 -3.957032 c -1.019531 0 -1.949219 0.367188 -2.730469 1.144532 c 0 0 -4.539062 -0.933594 -4.902344 -1.394532 l -0.082031 -27.90625 c -0.007812 -2.886718 -3.855469 -4.277343 -6.25 -4.273437 c -3.101562 0.003906 -7.117187 1.667969 -7.128906 4.726563 z m 0 0" fill="#ffffff"/>
            </g>
        </g>
    </mask>
    <mask id="C">
        <g filter="url(#A)">
            <rect fill-opacity="0.8" height="128" width="128"/>
        </g>
    </mask>
    <linearGradient id="D" gradientTransform="matrix(0 0.37 -0.98462 0 295.38501 -30.360001)" gradientUnits="userSpaceOnUse" x1="300" x2="428" y1="235" y2="235">
        <stop offset="0" stop-color="#f9f06b"/>
        <stop offset="1" stop-color="#f5c211"/>
    </linearGradient>
    <clipPath id="E">
        <rect height="128" width="128"/>
    </clipPath>
    <clipPath id="F">
        <rect height="128" width="128"/>
    </clipPath>
    <g clip-path="url(#a)">
        <g clip-path="url(#b)">
            <path d="m 121.96875 62.859375 c 0 32.117187 -25.734375 58.15625 -57.480469 58.15625 c -31.742187 0 -57.476562 -26.039063 -57.476562 -58.15625 c 0 -32.121094 25.734375 -58.15625 57.476562 -58.15625 c 31.746094 0 57.480469 26.035156 57.480469 58.15625 z m 0 0" fill="#1a5fb4"/>
        </g>
    </g>
    <g clip-path="url(#c)">
        <g clip-path="url(#d)">
            <path d="m 121.96875 58.507812 c 0 32.117188 -25.734375 58.15625 -57.480469 58.15625 c -31.742187 0 -57.476562 -26.039062 -57.476562 -58.15625 c 0 -32.121093 25.734375 -58.15625 57.476562 -58.15625 c 31.746094 0 57.480469 26.035157 57.480469 58.15625 z m 0 0" fill="#1c71d8"/>
        </g>
    </g>
    <g clip-path="url(#e)">
        <g clip-path="url(#f)">
            <path d="m 83.394531 34.625 v 2.941406 c 0 3.8125 -3.054687 6.902344 -6.820312 6.902344 c -4.527344 0.339844 -7.925781 4.332031 -7.589844 8.914062 v 0.496094 c 0 5.140625 4.117187 9.304688 9.199219 9.304688 h 10.375 c 3.765625 0 6.816406 3.089844 6.816406 6.902344 v 17.65625 c 0 4.851562 3.886719 8.78125 8.683594 8.78125 c 4.34375 -0.453126 7.503906 -4.382813 7.058594 -8.78125 v -12.78125 c 0 -3.140626 1.234374 -6.148438 3.433593 -8.363282 c 2.203125 -2.214844 5.183594 -3.453125 8.285157 -3.4375 c 1.132812 -0.683594 1.945312 -1.796875 2.261718 -3.089844 c 0.316406 -1.292968 0.113282 -2.660156 -0.570312 -3.800781 v -21.644531 c 0 -3.808594 -3.050782 -6.898438 -6.816406 -6.898438 h -27.496094 c -3.769532 0 -6.820313 3.089844 -6.820313 6.898438 z m 0 0" fill="#26a269"/>
        </g>
    </g>
    <g clip-path="url(#g)">
        <g clip-path="url(#h)">
            <path d="m 68.214844 21.222656 c 3.074218 0 5.566406 2.519532 5.566406 5.628906 v 6.183594 c 0 3.109375 -2.492188 5.628906 -5.566406 5.628906 c -3.074219 0 -5.566406 -2.519531 -5.566406 -5.628906 v -6.183594 c 0 -3.109374 2.492187 -5.628906 5.566406 -5.628906 z m 0 0" fill="#26a269"/>
        </g>
    </g>
    <g clip-path="url(#i)">
        <g clip-path="url(#j)">
            <path d="m 87.949219 12.730469 h 17.175781 c 2.78125 0 5.035156 2.277343 5.035156 5.089843 s -2.253906 5.09375 -5.035156 5.09375 h -17.175781 c -2.78125 0 -5.035157 -2.28125 -5.035157 -5.09375 s 2.253907 -5.089843 5.035157 -5.089843 z m 0 0" fill="#26a269"/>
        </g>
    </g>
    <g clip-path="url(#k)">
        <g clip-path="url(#l)">
            <path d="m 30.25 16.574219 h -7.664062 v 7.753906 c -2.117188 -4.28125 -7.265626 -6.019531 -11.496094 -3.878906 c -4.234375 2.144531 -5.949219 7.351562 -3.832032 11.632812 v 13.570313 c 0 4.285156 -3.433593 7.757812 -7.667968 7.757812 c -4.230469 0 -7.664063 3.472656 -7.664063 7.753906 v 15.507813 c 0 4.285156 3.433594 7.757813 7.664063 7.757813 c 4.234375 0 7.667968 3.46875 7.667968 7.753906 v 15.507812 c 0 4.285156 3.429688 7.757813 7.664063 7.757813 h 3.832031 c 4.230469 0 7.664063 -3.472657 7.664063 -7.757813 v -29.078125 c 0 -4.285156 -3.433594 -7.753906 -7.664063 -7.753906 c -4.234375 0 -7.664062 -3.472656 -7.664062 -7.757813 c 0 -4.28125 3.429687 -7.753906 7.664062 -7.753906 c 4.230469 0 7.664063 -3.472656 7.664063 -7.753906 c 0 -4.285156 3.429687 -7.753906 7.664062 -7.753906 s 7.664063 -3.472656 7.664063 -7.757813 v -11.519531 c 0 -2.203125 1.765625 -3.988281 3.945312 -3.988281 c 2.1875 -0.132813 3.851563 -2.035157 3.71875 -4.25 c -1.15625 -3.109375 -4.589844 -4.679688 -7.664062 -3.503907 h -3.832032 c -4.230468 0 -7.664062 3.46875 -7.664062 7.753907 z m 0 0" fill="#26a269"/>
        </g>
    </g>
    <path d="m 41.082031 15.878906 c -5.796875 0.003906 -11.640625 2.652344 -14.214843 7.84375 c -7.847657 0 -13.523438 6.867188 -13.730469 15.691406 h 52.957031 c -0.226562 -5.125 -4.695312 -9.292968 -9.804688 -9.75 c -0.761718 -7.820312 -7.335937 -13.785156 -15.195312 -13.785156 z m 0 0" fill="#ffffff"/>
    <path d="m 107.671875 11.882812 c -3.734375 0 -7.050781 2.386719 -8.238281 5.925782 c -0.878906 -0.355469 -1.816406 -0.542969 -2.761719 -0.542969 c -4.035156 0 -7.304687 3.269531 -7.304687 7.304687 c 0 1.246094 0.320312 2.472657 0.929687 3.5625 h 12.746094 c 0.027343 -0.050781 0.058593 -0.101562 0.085937 -0.15625 c 0.085938 0.054688 0.175782 0.105469 0.261719 0.15625 h 8.554687 c 2.726563 -1.539062 4.414063 -4.429687 4.414063 -7.5625 c 0 -4.796874 -3.890625 -8.6875 -8.6875 -8.6875 z m 0 0" fill="#ffffff"/>
    <path d="m 13.136719 39.414062 h 52.957031 v 3.925782 h -52.957031 z m 0 0" fill="#deddda"/>
    <path d="m 89.214844 35.257812 c -3.921875 0.003907 -7.882813 1.683594 -9.625 4.980469 c -5.3125 0 -9.15625 4.359375 -9.296875 9.960938 h 35.863281 c -0.15625 -3.253907 -3.179688 -5.898438 -6.640625 -6.1875 c -0.515625 -4.96875 -4.96875 -8.753907 -10.289063 -8.753907 z m 0 0" fill="#ffffff"/>
    <path d="m 70.292969 50.199219 h 35.863281 v 2.492187 h -35.863281 z m 0 0" fill="#deddda"/>
    <path d="m 74.105469 0.890625 c 3.734375 0 7.050781 2.386719 8.238281 5.925781 c 0.878906 -0.359375 1.816406 -0.542968 2.761719 -0.542968 c 4.035156 0 7.304687 3.269531 7.304687 7.300781 c 0 1.25 -0.320312 2.476562 -0.929687 3.566406 h -12.746094 c -0.027344 -0.050781 -0.058594 -0.105469 -0.085937 -0.15625 c -0.085938 0.054687 -0.175782 0.105469 -0.261719 0.15625 h -8.554688 c -2.726562 -1.542969 -4.414062 -4.429687 -4.414062 -7.5625 c 0 -4.800781 3.890625 -8.6875 8.6875 -8.6875 z m 0 0" fill="#ffffff"/>
    <path d="m 102.6875 104.097656 l 0.636719 -5.152344 c 0.003906 0.339844 0.378906 0.421876 1.0625 0.421876 c 0 0 9.6875 -0.015626 10.707031 -0.015626 c 1.949219 0 3.957031 1.636719 3.957031 4.023438 c 0 1.070312 -0.378906 2.003906 -1.148437 2.78125 l -15.746094 16.019531 c -0.648438 0.660157 -1.453125 1.332031 -2.894531 1.332031 c -1.441407 0 -2.136719 -0.5625 -2.863281 -1.300781 l -15.777344 -16.050781 c -0.769532 -0.777344 -1.105469 -2.097656 -1.105469 -3.167969 c 0 -2.390625 1.964844 -3.636719 3.914063 -3.636719 c 1.019531 0 1.953124 0.375 2.730468 1.167969 l 9.144532 9.296875 l 0.289062 -7.71875 c 0.082031 -2.222656 2.082031 3.339844 4.269531 3.339844 c 2.183594 0 2.550781 0.867188 2.824219 -1.339844 z m 0 0" fill="#deddda"/>
    <path d="m 94.691406 101.796875 l -0.164062 1.152344 c -0.003906 0.339843 -1.011719 -3.578125 -1.695313 -3.574219 c 0 0 -10.738281 0.015625 -11.757812 0.015625 c -1.949219 0 -0.785157 -0.773437 -1.515625 1.984375 c -0.234375 0.875 0.425781 3.921875 1.0625 4.78125 l 15.746094 16.019531 c 0.648437 0.660157 1.453124 1.332031 2.894531 1.332031 c 1.441406 0 2.136719 -0.5625 2.863281 -1.300781 l 15.777344 -16.050781 c 0.769531 -0.777344 1.148437 -1.710938 1.148437 -2.78125 c 0 -2.390625 0.394531 -3.910156 -1.550781 -3.910156 c -1.023438 0 -4.359375 0.261718 -5.136719 1.054687 c 0 0 -8.101562 -0.816406 -8.464843 -1.285156 l -1.664063 6.703125 c -0.707031 2.847656 -2.542969 1.210938 -4.9375 1.214844 c -3.101563 0.003906 -2.921875 -4.289063 -3.023437 -3.941406 z m 0 0" fill="#deddda"/>
    <path d="m 103.234375 69.457031 l 0.105469 27.308594 c 0.003906 0.332031 0.378906 0.410156 1.0625 0.414063 c 0 0 9.6875 -0.015626 10.707031 -0.015626 c 1.949219 0 3.957031 1.605469 3.957031 3.957032 c 0 1.050781 -0.378906 1.964844 -1.144531 2.730468 l -15.75 15.75 c -0.648437 0.648438 -1.453125 1.308594 -2.894531 1.308594 s -2.136719 -0.550781 -2.863282 -1.277344 l -15.777343 -15.78125 c -0.765625 -0.765624 -1.148438 -1.679687 -1.148438 -2.730468 c 0 -2.351563 2.011719 -3.957032 3.957031 -3.957032 c 1.023438 0 1.953126 0.367188 2.730469 1.144532 l 9.144531 9.144531 v -37.996094 c 0 -2.1875 1.773438 -3.960937 3.957032 -3.960937 s 3.957031 1.773437 3.957031 3.960937 z m 0 0" fill="#ffffff"/>
    <path d="m 94.015625 69.460938 l -0.105469 27.308593 c -0.003906 0.335938 -0.378906 0.414063 -1.0625 0.414063 c 0 0 -8.378906 -0.019532 -9.402344 -0.019532 c -1.945312 0 -3.957031 1.605469 -3.957031 3.957032 c 0 1.050781 0.382813 1.964844 1.148438 2.730468 l 15.746093 15.75 c 0.652344 0.648438 1.453126 1.308594 2.894532 1.308594 s 2.136718 -0.550781 2.863281 -1.277344 l 15.78125 -15.78125 c 0.765625 -0.765624 1.144531 -1.679687 1.144531 -2.730468 c 0 -2.351563 -2.007812 -3.957032 -3.957031 -3.957032 c -1.019531 0 -1.949219 0.367188 -2.730469 1.144532 c 0 0 -4.539062 -0.933594 -4.902344 -1.394532 l -0.082031 -27.90625 c -0.007812 -2.886718 -3.855469 -4.277343 -6.25 -4.273437 c -3.101562 0.003906 -7.117187 1.667969 -7.128906 4.726563 z m 0 0" fill="#ffffff"/>
    <g clip-path="url(#F)" mask="url(#B)">
        <g clip-path="url(#E)" mask="url(#C)">
            <path d="m 128 80.640625 v 47.359375 h -128 v -47.359375 z m 0 0" fill="url(#D)"/>
            <path d="m 13.308594 80.640625 l 47.355468 47.359375 h 21.214844 l -47.359375 -47.359375 z m 42.421875 0 l 47.363281 47.359375 h 21.214844 l -47.363282 -47.359375 z m 42.429687 0 l 29.839844 29.839844 v -21.210938 l -8.628906 -8.628906 z m -98.160156 7.90625 v 21.214844 l 18.238281 18.238281 h 21.214844 z m 0 0"/>
        </g>
    </g>
</svg>
